<?xml version="1.0" encoding="UTF-8" standalone="no"?>
<!-- Generator: Adobe Illustrator 15.0.0, SVG Export Plug-In . SVG Version: 6.00 Build 0)  -->

<svg
   version="1.0"
   id="Warstwa_2"
   x="0px"
   y="0px"
   width="420"
   height="420"
   viewBox="0 0 420 420"
   enable-background="new 0 0 1920 2000"
   xml:space="preserve"
   sodipodi:docname="welcome.svg"
   inkscape:version="1.1.2 (08b2f3d93c, 2022-04-05)"
   xmlns:inkscape="http://www.inkscape.org/namespaces/inkscape"
   xmlns:sodipodi="http://sodipodi.sourceforge.net/DTD/sodipodi-0.dtd"
   xmlns="http://www.w3.org/2000/svg"
   xmlns:svg="http://www.w3.org/2000/svg"><sodipodi:namedview
   id="namedview1146"
   pagecolor="#ffffff"
   bordercolor="#666666"
   borderopacity="1.0"
   inkscape:pageshadow="2"
   inkscape:pageopacity="0.0"
   inkscape:pagecheckerboard="0"
   showgrid="false"
   inkscape:zoom="1.8214286"
   inkscape:cx="210"
   inkscape:cy="210"
   inkscape:window-width="1846"
   inkscape:window-height="1016"
   inkscape:window-x="0"
   inkscape:window-y="0"
   inkscape:window-maximized="1"
   inkscape:current-layer="Warstwa_2" /><defs
   id="defs1436">
	
	
	
	
	
</defs>
<g
   display="none"
   id="g1223">
	<path
   display="inline"
   fill="none"
   stroke="#84cc16"
   stroke-width="2"
   d="M 1066.95,1092.271"
   id="path1151" />
	<g
   display="inline"
   id="g1155">
		<path
   fill="none"
   stroke="#84cc16"
   stroke-width="2"
   d="m 956.015,982.657 c 0,0 2.556,13.791 7.755,14.307 5.198,0.519 6.947,8.016 0.856,8.458 -6.089,0.442 6.531,3.589 10.124,5.742 3.592,2.15 3.101,7.284 -1.833,8.083 -4.948,0.801 -3.381,1.854 1.27,2.598 2.327,0.372 5.12,1.258 7.369,2.318 0.749,0.354 1.439,0.729 2.041,1.106 6.127,5.314 -1.693,6.144 -3.909,8.753 1.37,0.91 2.981,1.689 4.511,2.479 3.185,1.649 5.84,3.02 4.587,7.133 -0.039,0.175 -0.082,0.344 -0.126,0.506 -1.942,7.228 -11.623,3.834 -13.659,-4.141 -3.784,2.055 -3.419,11.136 -10.649,6.687 -3.085,-3.479 -3.019,-7.269 -2.976,-10.097 -0.141,-0.999 -0.222,-1.998 -0.241,-2.945 -0.018,-0.946 0.024,-1.847 0.127,-2.66 0.609,-4.881 0.085,-6.667 -2.763,-2.585 -2.839,4.071 -9.257,0.829 -9.236,-3.497 0.019,-4.325 6.456,-17.65 1.885,-12.434 -4.572,5.215 -8.089,-1.89 -3.853,-7.239 4.237,-5.346 4.959,-20.634 4.959,-20.634 0,0 1.491,-4.512 3.761,-1.938 z"
   id="path1153" />
	</g>
	<g
   display="inline"
   id="g1159">
		<path
   fill="none"
   stroke="#84cc16"
   stroke-width="2"
   d="m 1121.751,1160.475 c 0,0 -12.883,0.301 -13.469,-3.463 -0.585,-3.766 -5.806,-4.767 -6.553,-0.452 -0.748,4.315 -2.193,-5.146 -3.962,-8.766 -1.767,-3.618 -7.194,-3.333 -8.873,0.424 -1.683,3.769 -2.674,2.507 -2.5,-1.069 0.172,-3.578 0.252,-9.511 -2.203,-9.664 -4.225,-0.262 -6.355,2.93 -6.833,4.294 -2.051,5.853 -6.082,-9.805 -9.902,-8.003 -0.825,0.389 -1.796,0.579 -2.886,2.218 -2.38,3.581 11.462,11.467 4.504,11.355 -1.618,-0.026 -5.805,0.35 -5.402,4.062 0.234,2.161 8.344,4.445 13.056,4.417 4.709,-0.027 6.6,0.467 2.333,2.117 -4.254,1.644 -1.185,7.199 4.496,8.169 5.685,0.97 16.872,-3.927 12.396,-0.852 -4.475,3.077 4.257,5.981 8.224,2.739 3.967,-3.239 17.693,-5.123 17.693,-5.123 0,0 3.403,-1.515 -0.119,-2.403 z"
   id="path1157" />
	</g>
	<g
   display="inline"
   id="g1165">
		<path
   fill="none"
   stroke="#84cc16"
   stroke-width="2"
   d="m 997.032,1149.317 c 0,0 15.133,-2.027 10.752,-15.749 -2.773,-8.685 24.946,-23.837 33.233,-12.838 0,0 12.187,16.551 -13.329,31.16 -15.365,8.798 -8.273,-6.201 -28.526,0.848 z"
   id="path1161" />
		<path
   fill="none"
   stroke="#84cc16"
   stroke-width="2"
   d="m 998.438,1151.576 c 0,0 26.288,-6.85 35.099,-25.287"
   id="path1163" />
	</g>
	<g
   display="inline"
   id="g1171">
		<path
   fill="none"
   stroke="#84cc16"
   stroke-width="2"
   d="m 1120.553,931.301 c 0,0 -7.296,-10.142 -16.704,-7.161 -8.69,2.754 -30.476,-9.691 -26.354,-28.109 0,0 19.859,-11.79 31.506,1.55 11.646,13.338 -4.506,16.022 12.121,29.565 z"
   id="path1167" />
		<path
   fill="none"
   stroke="#84cc16"
   stroke-width="2"
   d="m 1120.688,930.321 c 0,0 -16.964,-26.014 -35.45,-31.511"
   id="path1169" />
	</g>
	<g
   display="inline"
   id="g1181">
		<path
   fill="none"
   stroke="#84cc16"
   stroke-width="2"
   d="m 1016.831,921.386 c 0,0 -46.726,-16.833 -43.594,51.307 0,0 8.062,-19.789 29.318,-25.653 21.257,-5.864 14.276,-25.654 14.276,-25.654 z"
   id="path1173" />
		<path
   fill="none"
   stroke="#84cc16"
   stroke-width="2"
   d="m 1016.831,921.386 c 0,0 -29.135,5.155 -34.633,28.244"
   id="path1175" />
		<path
   fill="none"
   stroke="#84cc16"
   stroke-width="2"
   d="m 995.509,930.596 c 0,0 0.617,5.841 -2.315,10.238"
   id="path1177" />
		<path
   fill="none"
   stroke="#84cc16"
   stroke-width="2"
   d="m 1006.063,924.747 c 0,0 -1.142,6.559 -4.073,12.79"
   id="path1179" />
	</g>
	<g
   display="inline"
   id="g1191">
		<path
   fill="none"
   stroke="#84cc16"
   stroke-width="2"
   d="m 1177.05,1071.02 c 0,0 58.045,-8.406 25.41,51.491 0,0 -7.254,-7.602 -23.802,-22.176 -16.546,-14.575 -1.608,-29.315 -1.608,-29.315 z"
   id="path1183" />
		<path
   fill="none"
   stroke="#84cc16"
   stroke-width="2"
   d="m 1177.05,1071.02 c 0,0 27.295,13.28 22.945,35.617"
   id="path1185" />
		<path
   fill="none"
   stroke="#84cc16"
   stroke-width="2"
   d="m 1186.909,1077.56 c 0,0 2.298,5.186 -2.029,12.4"
   id="path1187" />
		<path
   fill="none"
   stroke="#84cc16"
   stroke-width="2"
   d="m 1191.784,1082.126 c 0,0 6.369,-1.016 11.544,3.425"
   id="path1189" />
	</g>
	<path
   display="inline"
   fill="none"
   stroke="#b91c1c"
   stroke-width="2"
   d="m 1158.696,920.626 c 0,0 3.548,-3.896 11.81,-2.256 8.035,1.595 19.682,27.821 -10.69,30.979 0,0 -11.178,2.917 -18.953,-8.261 -7.775,-11.178 4.252,-26.12 20.774,-19.438"
   id="path1193" />
	<g
   display="inline"
   id="g1209">
		<path
   fill="none"
   stroke="#63a80e"
   stroke-width="2"
   d="m 968.968,1075.646 c 0,0 -22.163,32.63 -6.773,42.941 6.634,4.444 24.165,3.232 30.937,-13.391"
   id="path1195" />
		<path
   fill="none"
   stroke="#63a80e"
   stroke-width="2"
   d="m 988.616,1081.63 c 4.545,7.68 8.187,21.28 3.284,24.183 -4.9,2.901 -16.488,-5.998 -21.033,-13.679 -4.545,-7.684 -4.257,-16.261 0.645,-19.16 4.902,-2.901 12.559,0.974 17.104,8.656 z"
   id="path1197" />
		<line
   fill="none"
   stroke="#63a80e"
   stroke-width="2"
   x1="973.89398"
   y1="1077.954"
   x2="979.12701"
   y2="1085.649"
   id="line1199" />
		<line
   fill="none"
   stroke="#63a80e"
   stroke-width="2"
   x1="982.20398"
   y1="1087.65"
   x2="983.74298"
   y2="1081.494"
   id="line1201" />
		<line
   fill="none"
   stroke="#63a80e"
   stroke-width="2"
   x1="984.20599"
   y1="1090.882"
   x2="990.20801"
   y2="1094.731"
   id="line1203" />
		<line
   fill="none"
   stroke="#63a80e"
   stroke-width="2"
   x1="981.435"
   y1="1093.347"
   x2="984.66699"
   y2="1100.271"
   id="line1205" />
		<line
   fill="none"
   stroke="#63a80e"
   stroke-width="2"
   x1="973.43201"
   y1="1088.266"
   x2="979.27899"
   y2="1090.729"
   id="line1207" />
	</g>
	<path
   display="inline"
   fill="none"
   stroke="#d8c90e"
   stroke-width="2"
   d="m 1062.815,910.944 c -2.103,17.662 -13.74,17.521 -18.557,17.084 -4.817,-0.437 -9.227,-2.847 -12.079,-6.319 -2.855,-3.472 -4.128,-7.951 -3.691,-12.08 0.437,-4.129 2.563,-7.854 5.549,-10.222 2.986,-2.368 6.834,-3.83 10.273,-3.393 3.441,0.436 7.641,1.754 9.521,4.252 1.88,2.499 2.587,5.61 2.149,8.364 -0.437,2.752 -3.205,6.109 -5.218,7.503 -2.012,1.394 -4.44,1.818 -6.505,1.38 -2.064,-0.437 -3.739,-1.712 -4.646,-3.238 -0.908,-1.526 -1.049,-3.271 -0.61,-4.646 0.437,-1.376 1.429,-2.367 2.468,-2.788 1.04,-0.42 2.101,-0.279 2.788,0.159 0.688,0.438 0.996,1.146 0.931,1.699 -0.066,0.553 -0.492,0.929 -0.931,0.929"
   id="path1211" />
	<path
   display="inline"
   fill="none"
   stroke="#54a338"
   stroke-width="2"
   d="m 1205.885,1033.959 c 0,8.448 -3.202,15.297 -12.451,15.297 -8.894,0 -12.451,-6.849 -12.451,-15.297 0,-8.448 7.115,-17.787 10.673,-18.143 6.842,-0.683 14.229,9.695 14.229,18.143 z"
   id="path1213" />
	<path
   display="inline"
   fill="none"
   stroke="#84573b"
   stroke-width="2"
   d="m 1228.938,1024.136 c -4.129,6.344 -8.011,11.141 -14.957,6.619 -6.681,-4.349 -6.004,-11.229 -1.875,-17.575 4.13,-6.344 13.182,-7.395 16.026,-5.924 5.474,2.831 4.936,10.535 0.806,16.88 z"
   id="path1215" />
	<g
   display="inline"
   id="g1219">
		<path
   fill="none"
   stroke="#84cc16"
   stroke-width="2"
   d="m 1195.964,947.657 c 0,0 2.745,11.066 -1.555,11.783 -4.302,0.717 -4.507,5.265 0.687,5.664 5.194,0.399 -6.69,3.228 -9.717,5.704 -10.68,8.741 -2.384,4.58 2.329,5.812 4.725,1.233 3.433,2.158 -0.789,2.212 -4.222,0.055 -15.519,6.49 -12.612,6.867 4.991,0.649 6.313,0.877 8.001,1.211 7.234,1.433 -11.162,13.736 -9.042,14.581 4.639,1.844 15.941,-13.762 17.103,-7.768 0.27,1.393 0.094,1.886 1.837,4.97 1.008,1.785 7.582,-7.984 6.675,-12.035 -0.908,-4.051 -0.68,-5.705 2.045,-2.129 2.715,3.568 7.725,6.169 5.748,-4.356 -0.902,-4.807 -4.746,-14.267 -0.312,-10.59 4.435,3.676 6.216,-4.001 1.68,-7.23 -4.529,-3.229 -9.283,-14.932 -9.283,-14.932 0,0 -2.408,-2.846 -2.795,0.236 z"
   id="path1217" />
	</g>
	<path
   display="inline"
   fill="none"
   stroke="#d3d363"
   stroke-width="2"
   d="m 1139.985,1137.944 c 0,0 -4.306,-5.275 -2.953,-9.771 1.823,-6.07 12.271,-12.729 25.226,-4.772 12.554,7.707 13.612,18.765 9.432,23.522 -2.201,2.505 -6.59,3.637 -10.226,3.636 0,0 2.612,-9.203 -2.16,-8.295 -4.83,0.919 -6.477,4.659 -6.705,10.341 0,0 -5.682,4.091 -9.544,-3.409 0,0 5.112,-8.067 4.771,-11.817 -0.395,-4.35 -3.636,-4.32 -7.841,0.565 z"
   id="path1221" />
</g>


<g
   id="g1431"
   transform="matrix(1.3512852,0,0,1.3512852,-1273.803,-1148.2882)">
	<path
   fill="none"
   stroke="#84cc16"
   stroke-width="2"
   d="M 1051.6,1105.875"
   id="path1331" />
	<g
   id="g1335">
		<path
   fill="none"
   stroke="#84cc16"
   stroke-width="2"
   d="m 952.929,1041.226 c 0,0 2.225,12.006 6.753,12.455 4.526,0.451 6.049,6.979 0.747,7.363 -5.304,0.385 5.686,3.124 8.813,4.999 3.127,1.871 2.699,6.341 -1.596,7.036 -4.308,0.697 -2.942,1.614 1.105,2.262 2.026,0.323 4.457,1.095 6.415,2.018 0.652,0.309 1.253,0.636 1.777,0.964 5.333,4.626 -1.475,5.348 -3.403,7.619 1.192,0.792 2.595,1.471 3.927,2.157 2.771,1.437 5.084,2.629 3.993,6.21 -0.034,0.152 -0.071,0.299 -0.11,0.44 -1.69,6.292 -10.118,3.337 -11.891,-3.604 -3.294,1.788 -2.977,9.693 -9.271,5.82 -2.689,-3.028 -2.631,-6.327 -2.593,-8.789 -0.123,-0.87 -0.193,-1.739 -0.21,-2.564 -0.016,-0.823 0.021,-1.607 0.11,-2.315 0.53,-4.249 0.073,-5.804 -2.405,-2.25 -2.472,3.544 -8.059,0.722 -8.04,-3.045 0.016,-3.765 5.62,-15.365 1.641,-10.823 -3.98,4.539 -7.042,-1.646 -3.354,-6.302 3.688,-4.654 4.317,-17.963 4.317,-17.963 0,0 1.299,-3.93 3.275,-1.688 z"
   id="path1333" />
	</g>
	<g
   id="g1339">
		<path
   fill="none"
   stroke="#84cc16"
   stroke-width="2"
   d="m 1090.225,1110.557 c 0,0 -8.13,7.73 -10.71,5.647 -2.579,-2.085 -6.53,0.323 -4.488,3.541 2.042,3.22 -4.424,-2.034 -7.683,-3.333 -3.255,-1.299 -6.588,2.06 -5.472,5.464 1.12,3.414 -0.257,3.181 -2.237,0.773 -1.982,-2.407 -5.4,-6.279 -7.074,-4.941 -2.876,2.303 -2.383,5.606 -1.893,6.766 2.102,4.973 -9.656,-2.763 -11.065,0.633 -0.306,0.733 -0.819,1.424 -0.563,3.118 0.56,3.7 14.097,0.688 9.547,4.686 -1.06,0.93 -3.539,3.621 -1.107,5.778 1.415,1.256 7.979,-2.015 11,-4.79 3.021,-2.771 4.528,-3.559 2.743,0 -1.781,3.548 3.447,5.334 7.677,2.637 4.232,-2.701 8.58,-12.402 7.493,-7.801 -1.085,4.602 6.244,1.366 6.904,-3.045 0.662,-4.408 8.41,-13.652 8.41,-13.652 0,0 1.307,-2.97 -1.482,-1.482 z"
   id="path1337" />
	</g>
	<g
   id="g1345">
		<path
   fill="none"
   stroke="#84cc16"
   stroke-width="2"
   d="m 1172.664,903.845 c 0,0 13.174,-1.765 9.36,-13.709 -2.415,-7.561 21.716,-20.751 28.931,-11.176 0,0 10.608,14.408 -11.604,27.125 -13.376,7.659 -7.202,-5.398 -24.833,0.738 z"
   id="path1341" />
		<path
   fill="none"
   stroke="#84cc16"
   stroke-width="2"
   d="m 1173.889,905.812 c 0,0 22.884,-5.963 30.554,-22.013"
   id="path1343" />
	</g>
	<g
   id="g1351">
		<path
   fill="none"
   stroke="#84cc16"
   stroke-width="2"
   d="m 1050.022,900.868 c 0,0 -6.352,-8.829 -14.542,-6.233 -7.565,2.397 -26.529,-8.437 -22.941,-24.47 0,0 17.288,-10.264 27.427,1.349 10.139,11.611 -3.922,13.948 10.552,25.738 z"
   id="path1347" />
		<path
   fill="none"
   stroke="#84cc16"
   stroke-width="2"
   d="m 1050.14,900.016 c 0,0 -14.768,-22.646 -30.86,-27.432"
   id="path1349" />
	</g>
	<g
   id="g1361">
		<path
   fill="none"
   stroke="#84cc16"
   stroke-width="2"
   d="m 967.477,966.934 c 0,0 -40.754,14.443 -1.049,58.598 0,0 -5.488,-17.773 5.59,-33.446 11.078,-15.677 -4.541,-25.152 -4.541,-25.152 z"
   id="path1353" />
		<path
   fill="none"
   stroke="#84cc16"
   stroke-width="2"
   d="m 967.477,966.934 c 0,0 -16.779,19.546 -7.74,38.123"
   id="path1355" />
		<path
   fill="none"
   stroke="#84cc16"
   stroke-width="2"
   d="m 958.197,984.898 c 0,0 3.641,3.593 4.091,8.172"
   id="path1357" />
		<path
   fill="none"
   stroke="#84cc16"
   stroke-width="2"
   d="m 962.079,975.138 c 0,0 2.851,5.046 4.313,10.86"
   id="path1359" />
	</g>
	<g
   id="g1371">
		<path
   fill="none"
   stroke="#84cc16"
   stroke-width="2"
   d="m 1138.71,1108.41 c 0,0 50.53,-7.317 22.12,44.824 0,0 -6.314,-6.617 -20.72,-19.305 -14.403,-12.687 -1.4,-25.519 -1.4,-25.519 z"
   id="path1363" />
		<path
   fill="none"
   stroke="#84cc16"
   stroke-width="2"
   d="m 1138.71,1108.41 c 0,0 23.761,11.561 19.975,31.006"
   id="path1365" />
		<path
   fill="none"
   stroke="#84cc16"
   stroke-width="2"
   d="m 1147.293,1114.104 c 0,0 2,4.515 -1.767,10.795"
   id="path1367" />
		<path
   fill="none"
   stroke="#84cc16"
   stroke-width="2"
   d="m 1151.537,1118.079 c 0,0 5.544,-0.885 10.049,2.981"
   id="path1369" />
	</g>
	<path
   fill="none"
   stroke="#b91c1c"
   stroke-width="2"
   d="m 1087.639,873.152 c 0,0 3.089,-3.392 10.28,-1.964 6.995,1.388 17.134,24.219 -9.306,26.968 0,0 -9.73,2.539 -16.5,-7.191 -6.769,-9.73 3.702,-22.738 18.085,-16.922"
   id="path1373" />
	<g
   id="g1389">
		<path
   fill="none"
   stroke="#63a80e"
   stroke-width="2"
   d="m 1000.721,1112.487 c 0,0 -19.293,28.405 -5.896,37.382 5.775,3.869 21.037,2.813 26.932,-11.657"
   id="path1375" />
		<path
   fill="none"
   stroke="#63a80e"
   stroke-width="2"
   d="m 1017.825,1117.697 c 3.957,6.686 7.127,18.524 2.859,21.052 -4.266,2.525 -14.354,-5.222 -18.31,-11.908 -3.957,-6.688 -3.706,-14.155 0.561,-16.68 4.268,-2.524 10.934,0.849 14.89,7.536 z"
   id="path1377" />
		<path
   id="line1379"
   style="fill:none;stroke:#63a80e;stroke-width:2"
   d="m 1005.009,1114.4969 4.555,6.6991" />
		<path
   id="line1381"
   style="fill:none;stroke:#63a80e;stroke-width:2"
   d="m 1012.243,1122.938 1.34,-5.359" />
		<path
   id="line1383"
   style="fill:none;stroke:#63a80e;stroke-width:2"
   d="m 1013.986,1125.751 5.225,3.352" />
		<path
   id="line1385"
   style="fill:none;stroke:#63a80e;stroke-width:2"
   d="m 1011.573,1127.896 2.815,6.029" />
		<path
   id="line1387"
   style="fill:none;stroke:#63a80e;stroke-width:2"
   d="m 1004.607,1123.474 5.09,2.144" />
	</g>
	<path
   fill="none"
   stroke="#d8c90e"
   stroke-width="2"
   d="m 979.505,930.546 c -1.83,15.375 -11.962,15.252 -16.154,14.872 -4.194,-0.379 -8.036,-2.479 -10.518,-5.5 -2.486,-3.022 -3.594,-6.922 -3.214,-10.516 0.38,-3.594 2.231,-6.837 4.83,-8.898 2.599,-2.061 5.953,-3.334 8.947,-2.953 2.996,0.38 6.651,1.527 8.289,3.702 1.637,2.175 2.252,4.884 1.871,7.281 -0.38,2.396 -2.79,5.318 -4.542,6.532 -1.752,1.214 -3.866,1.583 -5.663,1.202 -1.797,-0.381 -3.255,-1.491 -4.045,-2.819 -0.792,-1.328 -0.915,-2.847 -0.532,-4.045 0.381,-1.198 1.247,-2.061 2.151,-2.427 0.905,-0.365 1.828,-0.243 2.427,0.139 0.6,0.381 0.867,0.998 0.811,1.479 -0.058,0.481 -0.429,0.809 -0.811,0.809"
   id="path1391" />
	<path
   fill="none"
   stroke="#54a338"
   stroke-width="2"
   d="m 1105.838,1152.003 c -6.757,-2.549 -11.27,-7.177 -8.479,-14.574 2.684,-7.114 9.234,-7.894 15.993,-5.346 6.758,2.55 12.081,11.06 11.292,14.012 -1.518,5.679 -12.048,8.457 -18.806,5.908 z"
   id="path1393" />
	<path
   fill="none"
   stroke="#84573b"
   stroke-width="2"
   d="m 1236.52,1102.166 c -2.59,6.058 -5.2,10.753 -11.835,7.917 -6.38,-2.729 -6.83,-8.73 -4.241,-14.791 2.592,-6.059 10.196,-8.316 12.856,-7.48 5.118,1.607 5.81,8.293 3.22,14.354 z"
   id="path1395" />
	<g
   id="g1399">
		<path
   fill="none"
   stroke="#84cc16"
   stroke-width="2"
   d="m 1142.678,857.696 c 0,0 2.39,9.633 -1.354,10.257 -3.744,0.625 -3.923,4.583 0.598,4.931 4.521,0.347 -5.824,2.81 -8.459,4.965 -9.297,7.609 -2.074,3.987 2.028,5.059 4.112,1.073 2.988,1.879 -0.688,1.926 -3.675,0.048 -13.509,5.65 -10.979,5.978 4.346,0.565 5.496,0.764 6.966,1.054 6.298,1.248 -9.718,11.958 -7.872,12.693 4.039,1.604 13.878,-11.98 14.889,-6.763 0.234,1.213 0.082,1.642 1.6,4.326 0.877,1.554 6.6,-6.95 5.811,-10.477 -0.791,-3.526 -0.592,-4.966 1.779,-1.854 2.363,3.106 6.725,5.371 5.004,-3.792 -0.785,-4.185 -4.131,-12.42 -0.271,-9.22 3.86,3.2 5.411,-3.482 1.462,-6.294 -3.943,-2.811 -8.081,-12.999 -8.081,-12.999 0,0 -2.096,-2.473 -2.433,0.21 z"
   id="path1397" />
	</g>
	<path
   fill="none"
   stroke="#d3d363"
   stroke-width="2"
   d="m 1188.267,1122.626 c 0,0 -3.045,-5.086 -1.313,-8.789 2.335,-4.999 12.175,-9.417 22.33,-0.931 9.841,8.222 9.358,17.88 5.158,21.45 -2.212,1.881 -6.135,2.303 -9.267,1.843 0,0 3.41,-7.598 -0.814,-7.418 -4.276,0.184 -6.166,3.197 -7.08,8.063 0,0 -5.409,2.807 -7.79,-4.14 0,0 5.421,-6.305 5.6,-9.578 0.207,-3.795 -2.587,-4.178 -6.824,-0.5 z"
   id="path1401" />
	<g
   id="g1415">
		<path
   fill="none"
   stroke="#dd8731"
   stroke-width="2"
   d="m 1235.17,960.116 c -10.043,5.025 -7.278,-6.724 -12.303,-16.767 -5.025,-10.042 -15.938,-14.577 -5.894,-19.602 10.043,-5.025 22.258,-0.957 27.282,9.085 5.025,10.044 0.958,22.259 -9.085,27.284 z"
   id="path1403" />
		<path
   id="circle1405"
   style="fill:none;stroke:#dd8731;stroke-width:2"
   d="m 1241.598,944.46198 a 2.3329999,2.3329999 0 0 1 -2.333,2.333 2.3329999,2.3329999 0 0 1 -2.333,-2.333 2.3329999,2.3329999 0 0 1 2.333,-2.333 2.3329999,2.3329999 0 0 1 2.333,2.333 z" />
		<path
   id="circle1407"
   style="fill:none;stroke:#dd8731;stroke-width:2"
   d="m 1232.649,929.55798 a 2.3329999,2.3329999 0 0 1 -2.333,2.333 2.3329999,2.3329999 0 0 1 -2.333,-2.333 2.3329999,2.3329999 0 0 1 2.333,-2.333 2.3329999,2.3329999 0 0 1 2.333,2.333 z" />
		<path
   id="circle1409"
   style="fill:none;stroke:#dd8731;stroke-width:2"
   d="m 1235.562,952.14099 a 2.3329999,2.3329999 0 0 1 -2.333,2.333 2.3329999,2.3329999 0 0 1 -2.333,-2.333 2.3329999,2.3329999 0 0 1 2.333,-2.333 2.3329999,2.3329999 0 0 1 2.333,2.333 z" />
		<path
   id="circle1411"
   style="fill:none;stroke:#dd8731;stroke-width:2"
   d="m 1223.482,929.85797 a 2.3329999,2.3329999 0 0 1 -2.333,2.333 2.3329999,2.3329999 0 0 1 -2.333,-2.333 2.3329999,2.3329999 0 0 1 2.333,-2.333 2.3329999,2.3329999 0 0 1 2.333,2.333 z" />
		<path
   id="circle1413"
   style="fill:none;stroke:#dd8731;stroke-width:2"
   d="m 1240.329,935.966 a 2.3329999,2.3329999 0 0 1 -2.333,2.333 2.3329999,2.3329999 0 0 1 -2.333,-2.333 2.3329999,2.3329999 0 0 1 2.333,-2.333 2.3329999,2.3329999 0 0 1 2.333,2.333 z" />
	</g>
	<g
   id="g1425">
		<path
   fill="none"
   stroke="#84cc16"
   stroke-width="2"
   d="m 1227.999,1021.582 c 0,0 -32.456,-37.38 11.476,-48.647 0,0 5.95,-0.073 9.21,19.15 2.565,15.132 -20.686,29.497 -20.686,29.497 z"
   id="path1417" />
		<path
   fill="none"
   stroke="#84cc16"
   stroke-width="2"
   d="m 1227.999,1021.582 c 0,0 -2.819,-24.586 8.823,-40.261"
   id="path1419" />
		<path
   fill="none"
   stroke="#84cc16"
   stroke-width="2"
   d="m 1227.982,1007.736 c 0,0 4.894,-7.915 11.795,-10.36"
   id="path1421" />
		<path
   fill="none"
   stroke="#84cc16"
   stroke-width="2"
   d="m 1227.94,1005.432 c 0,0 -3.192,-10.262 -4.204,-16.111"
   id="path1423" />
	</g>
	<path
   fill="none"
   stroke="#d8c90e"
   stroke-width="2"
   d="m 1251.907,1077.841 c 0,0 3.597,-16.893 -7.334,-15.014 -10.929,1.878 -4.52,9.716 -1.199,6.09 3.32,-3.623 7.625,-19.692 -2.509,-18.878 -10.131,0.814 -13.144,6.831 -6.686,6.812 6.462,-0.023 8.951,-18.24 -0.473,-15.913"
   id="path1427" />
	<path
   fill="none"
   stroke="#84cc16"
   stroke-width="2"
   d="m 998.019,904.085 c -6.291,1.957 -11.559,3.014 -13.702,-3.876 -2.06,-6.626 2.218,-10.86 8.51,-12.819 6.293,-1.956 12.943,2.369 14.031,4.936 2.095,4.939 -2.546,9.801 -8.839,11.759 z"
   id="path1429" />
</g><g
   id="g1237"
   transform="matrix(1.3512852,0,0,1.3512852,-1272.9985,-1143.4613)">
		<path
   fill="#4b5564"
   d="m 1011.982,983.172 c 2.545,0 4.743,0.26 6.595,0.781 1.852,0.521 3.451,1.147 4.802,1.88 l -1.967,6.421 c -1.505,-0.771 -3.019,-1.378 -4.541,-1.822 -1.524,-0.443 -2.979,-0.665 -4.368,-0.665 -1.774,0 -3.124,0.328 -4.049,0.983 -0.926,0.656 -1.389,1.524 -1.389,2.604 0,1.234 0.442,2.131 1.33,2.689 0.887,0.56 2.257,1.148 4.107,1.765 l 3.413,1.099 c 1.35,0.463 2.604,1.032 3.76,1.707 1.157,0.675 2.15,1.456 2.979,2.343 0.829,0.888 1.476,1.89 1.938,3.008 0.463,1.119 0.693,2.334 0.693,3.645 0,1.543 -0.289,2.999 -0.867,4.368 -0.578,1.369 -1.456,2.574 -2.632,3.615 -1.177,1.041 -2.661,1.861 -4.455,2.458 -1.793,0.598 -3.904,0.897 -6.334,0.897 -2.276,0 -4.445,-0.242 -6.508,-0.724 -2.063,-0.481 -3.963,-1.166 -5.698,-2.054 l 1.967,-6.421 c 1.658,0.81 3.277,1.446 4.859,1.909 1.581,0.463 3.239,0.694 4.975,0.694 2.044,0 3.52,-0.338 4.426,-1.013 0.905,-0.674 1.359,-1.591 1.359,-2.748 0,-0.385 -0.078,-0.771 -0.231,-1.156 -0.154,-0.386 -0.454,-0.771 -0.896,-1.157 -0.444,-0.386 -1.062,-0.762 -1.852,-1.128 -0.791,-0.366 -1.803,-0.742 -3.037,-1.128 l -2.834,-0.983 c -1.351,-0.501 -2.604,-1.061 -3.761,-1.678 -1.156,-0.617 -2.15,-1.35 -2.979,-2.198 -0.83,-0.849 -1.476,-1.832 -1.938,-2.95 -0.462,-1.118 -0.694,-2.449 -0.694,-3.992 0,-1.581 0.299,-3.046 0.897,-4.396 0.597,-1.35 1.483,-2.517 2.661,-3.5 1.176,-0.983 2.622,-1.754 4.338,-2.314 1.718,-0.559 3.694,-0.839 5.931,-0.839 z"
   id="path1225" />
		<path
   fill="#4b5564"
   d="m 1041.37,983.866 h 9.371 l 13.132,36.444 h -9.313 l -2.487,-7.81 h -12.264 l -2.488,7.81 h -9.197 z m 0.347,22.272 h 8.33 l -1.388,-4.396 c -0.463,-1.427 -0.936,-2.95 -1.418,-4.57 -0.482,-1.619 -0.896,-3.104 -1.243,-4.454 h -0.116 c -0.386,1.351 -0.829,2.815 -1.33,4.396 -0.502,1.582 -0.983,3.124 -1.446,4.628 z"
   id="path1227" />
		<path
   fill="#4b5564"
   d="m 1068.732,983.866 h 8.793 v 29.618 h 14.404 v 6.826 h -23.197 z"
   id="path1229" />
		<path
   fill="#4b5564"
   d="m 1106.39,983.866 h 9.371 l 13.132,36.444 h -9.313 l -2.487,-7.81 h -12.264 l -2.488,7.81 h -9.197 z m 0.346,22.272 h 8.33 l -1.388,-4.396 c -0.463,-1.427 -0.936,-2.95 -1.418,-4.57 -0.482,-1.619 -0.896,-3.104 -1.243,-4.454 h -0.116 c -0.386,1.351 -0.829,2.815 -1.33,4.396 -0.502,1.582 -0.983,3.124 -1.446,4.628 z"
   id="path1231" />
		<path
   fill="#4b5564"
   d="m 1146.768,983.866 c 2.893,0 5.515,0.367 7.867,1.099 2.352,0.733 4.367,1.832 6.045,3.297 1.678,1.466 2.97,3.288 3.876,5.467 0.906,2.179 1.359,4.715 1.359,7.606 0,3.24 -0.54,6.046 -1.619,8.417 -1.08,2.372 -2.556,4.339 -4.426,5.9 -1.871,1.563 -4.06,2.729 -6.565,3.5 -2.508,0.772 -5.169,1.157 -7.983,1.157 h -11.569 v -36.444 h 13.015 z m -4.223,29.735 h 2.256 c 1.542,0 3.037,-0.193 4.483,-0.579 1.446,-0.385 2.709,-1.05 3.789,-1.995 1.079,-0.945 1.946,-2.208 2.603,-3.789 0.655,-1.581 0.983,-3.548 0.983,-5.901 0,-3.509 -0.983,-6.18 -2.95,-8.012 -1.967,-1.831 -4.628,-2.748 -7.982,-2.748 h -3.182 z"
   id="path1233" />
		<path
   fill="#4b5564"
   d="m 1184.137,983.172 c 2.545,0 4.743,0.26 6.595,0.781 1.852,0.521 3.451,1.147 4.802,1.88 l -1.967,6.421 c -1.505,-0.771 -3.019,-1.378 -4.541,-1.822 -1.524,-0.443 -2.979,-0.665 -4.368,-0.665 -1.774,0 -3.124,0.328 -4.049,0.983 -0.926,0.656 -1.389,1.524 -1.389,2.604 0,1.234 0.442,2.131 1.33,2.689 0.887,0.56 2.257,1.148 4.107,1.765 l 3.413,1.099 c 1.35,0.463 2.604,1.032 3.76,1.707 1.157,0.675 2.15,1.456 2.979,2.343 0.829,0.888 1.476,1.89 1.938,3.008 0.463,1.119 0.693,2.334 0.693,3.645 0,1.543 -0.289,2.999 -0.867,4.368 -0.578,1.369 -1.456,2.574 -2.632,3.615 -1.177,1.041 -2.661,1.861 -4.455,2.458 -1.793,0.598 -3.904,0.897 -6.334,0.897 -2.276,0 -4.445,-0.242 -6.508,-0.724 -2.063,-0.481 -3.963,-1.166 -5.698,-2.054 l 1.967,-6.421 c 1.658,0.81 3.277,1.446 4.859,1.909 1.581,0.463 3.239,0.694 4.975,0.694 2.044,0 3.52,-0.338 4.426,-1.013 0.905,-0.674 1.359,-1.591 1.359,-2.748 0,-0.385 -0.078,-0.771 -0.231,-1.156 -0.154,-0.386 -0.454,-0.771 -0.896,-1.157 -0.444,-0.386 -1.062,-0.762 -1.852,-1.128 -0.791,-0.366 -1.803,-0.742 -3.037,-1.128 l -2.834,-0.983 c -1.351,-0.501 -2.604,-1.061 -3.761,-1.678 -1.156,-0.617 -2.15,-1.35 -2.979,-2.198 -0.83,-0.849 -1.476,-1.832 -1.938,-2.95 -0.462,-1.118 -0.694,-2.449 -0.694,-3.992 0,-1.581 0.299,-3.046 0.897,-4.396 0.597,-1.35 1.483,-2.517 2.661,-3.5 1.176,-0.983 2.622,-1.754 4.338,-2.314 1.717,-0.559 3.693,-0.839 5.931,-0.839 z"
   id="path1235" />
	</g><g
   id="g1261"
   transform="matrix(1.3512852,0,0,1.3512852,-1272.1941,-1145.0703)">
		<path
   fill="#4b5564"
   d="m 1002.907,954.919 c 1.3,0 2.451,0.128 3.453,0.383 1.001,0.256 1.896,0.586 2.685,0.991 l -0.99,3.261 c -0.874,-0.426 -1.716,-0.751 -2.525,-0.975 -0.811,-0.224 -1.599,-0.336 -2.366,-0.336 -1.022,0 -1.816,0.203 -2.381,0.607 -0.565,0.405 -0.848,0.949 -0.848,1.63 0,0.704 0.245,1.236 0.735,1.599 0.49,0.363 1.278,0.714 2.365,1.055 l 1.918,0.607 c 1.599,0.533 2.851,1.29 3.757,2.27 0.905,0.98 1.358,2.185 1.358,3.612 0,0.853 -0.16,1.652 -0.479,2.397 -0.319,0.747 -0.799,1.396 -1.438,1.95 -0.639,0.554 -1.438,0.991 -2.397,1.311 -0.959,0.32 -2.078,0.479 -3.356,0.479 -2.409,0 -4.614,-0.49 -6.617,-1.47 l 0.99,-3.261 c 0.917,0.447 1.812,0.794 2.686,1.039 0.874,0.245 1.79,0.367 2.749,0.367 1.13,0 1.982,-0.208 2.558,-0.623 0.576,-0.415 0.863,-0.996 0.863,-1.742 0,-0.256 -0.048,-0.506 -0.144,-0.751 -0.097,-0.245 -0.272,-0.479 -0.528,-0.703 -0.255,-0.224 -0.602,-0.448 -1.038,-0.671 -0.438,-0.224 -1.008,-0.442 -1.711,-0.655 l -1.694,-0.575 c -0.746,-0.256 -1.428,-0.554 -2.046,-0.896 -0.618,-0.34 -1.146,-0.735 -1.582,-1.183 -0.437,-0.447 -0.778,-0.975 -1.022,-1.583 -0.246,-0.607 -0.368,-1.315 -0.368,-2.125 0,-0.874 0.16,-1.678 0.479,-2.414 0.319,-0.736 0.794,-1.369 1.423,-1.902 0.628,-0.533 1.406,-0.948 2.333,-1.247 0.925,-0.296 1.985,-0.446 3.178,-0.446 z"
   id="path1239" />
		<path
   fill="#4b5564"
   d="m 1023.462,972.374 c 0.98,0 1.812,-0.085 2.493,-0.256 0.682,-0.17 1.268,-0.405 1.759,-0.704 l 0.895,3.197 c -0.512,0.299 -1.236,0.565 -2.174,0.799 -0.938,0.234 -2.077,0.352 -3.42,0.352 -1.514,0 -2.909,-0.24 -4.188,-0.719 -1.279,-0.479 -2.382,-1.172 -3.309,-2.078 -0.928,-0.906 -1.646,-2.003 -2.158,-3.293 -0.512,-1.289 -0.768,-2.744 -0.768,-4.363 0,-1.577 0.251,-3.005 0.752,-4.284 0.5,-1.279 1.203,-2.371 2.109,-3.276 0.905,-0.906 2.009,-1.604 3.309,-2.094 1.3,-0.49 2.749,-0.735 4.348,-0.735 1.363,0 2.488,0.128 3.372,0.383 0.885,0.256 1.604,0.533 2.158,0.832 l -0.991,3.229 c -0.555,-0.298 -1.167,-0.548 -1.838,-0.751 -0.671,-0.202 -1.423,-0.304 -2.254,-0.304 -0.874,0 -1.694,0.128 -2.461,0.384 -0.768,0.256 -1.438,0.667 -2.015,1.231 -0.575,0.565 -1.028,1.29 -1.358,2.173 -0.33,0.885 -0.495,1.956 -0.495,3.213 0,1.215 0.159,2.265 0.479,3.149 0.319,0.884 0.762,1.614 1.326,2.189 0.564,0.576 1.226,1.007 1.982,1.295 0.757,0.286 1.573,0.431 2.447,0.431 z"
   id="path1241" />
		<path
   fill="#4b5564"
   d="m 1031.742,955.271 h 7.64 c 1.13,0 2.126,0.166 2.989,0.496 0.863,0.331 1.582,0.778 2.157,1.342 0.576,0.565 1.007,1.226 1.295,1.982 0.288,0.757 0.432,1.572 0.432,2.446 0,0.81 -0.123,1.529 -0.367,2.158 -0.246,0.629 -0.555,1.172 -0.928,1.63 -0.373,0.458 -0.788,0.842 -1.246,1.151 -0.459,0.309 -0.901,0.559 -1.327,0.751 l 4.923,8.184 h -5.019 l -3.868,-7.417 h -2.333 v 7.417 h -4.348 z m 4.348,9.366 h 1.726 c 1.151,0 2.094,-0.234 2.829,-0.703 0.735,-0.469 1.103,-1.247 1.103,-2.333 0,-0.959 -0.293,-1.699 -0.879,-2.222 -0.586,-0.522 -1.443,-0.783 -2.573,-0.783 h -2.205 v 6.041 z"
   id="path1243" />
		<path
   fill="#4b5564"
   d="m 1049.451,955.271 h 4.38 v 12.051 c 0,1.663 0.335,2.925 1.007,3.789 0.671,0.863 1.71,1.294 3.116,1.294 1.386,0 2.387,-0.437 3.006,-1.311 0.617,-0.874 0.927,-2.003 0.927,-3.389 V 955.27 h 4.379 v 12.115 c 0,2.813 -0.698,4.913 -2.094,6.298 -1.396,1.385 -3.468,2.078 -6.218,2.078 -2.643,0 -4.72,-0.692 -6.233,-2.078 -1.513,-1.385 -2.27,-3.538 -2.27,-6.458 z"
   id="path1245" />
		<path
   fill="#4b5564"
   d="m 1071.924,955.271 h 5.53 l 2.877,9.174 c 0.128,0.405 0.261,0.842 0.399,1.311 0.138,0.469 0.272,0.938 0.399,1.406 0.128,0.469 0.245,0.927 0.353,1.375 0.105,0.448 0.191,0.863 0.255,1.247 h 0.128 c 0.064,-0.341 0.149,-0.74 0.256,-1.199 0.106,-0.458 0.224,-0.932 0.352,-1.422 0.128,-0.49 0.256,-0.969 0.384,-1.438 0.128,-0.468 0.245,-0.895 0.352,-1.279 l 2.781,-9.174 h 5.53 l 1.503,20.139 h -4.124 c -0.128,-2.216 -0.256,-4.433 -0.384,-6.649 -0.128,-2.216 -0.213,-4.454 -0.256,-6.713 l -0.032,-2.621 h -0.096 c -0.277,1.172 -0.581,2.397 -0.911,3.676 -0.33,1.278 -0.645,2.397 -0.942,3.356 l -2.846,8.951 h -3.388 l -2.909,-8.983 c -0.363,-1.15 -0.703,-2.365 -1.023,-3.644 -0.319,-1.279 -0.575,-2.397 -0.767,-3.356 h -0.097 c 0,0.767 -0.011,1.572 -0.031,2.414 -0.021,0.842 -0.048,1.678 -0.08,2.509 -0.032,0.831 -0.064,1.646 -0.096,2.445 -0.032,0.799 -0.069,1.53 -0.112,2.19 l -0.384,6.425 h -4.06 z"
   id="path1247" />
		<path
   fill="#4b5564"
   d="m 1097.273,955.271 h 7.064 c 1.172,0 2.232,0.139 3.181,0.416 0.948,0.277 1.758,0.682 2.43,1.215 0.671,0.533 1.188,1.178 1.55,1.934 0.362,0.756 0.544,1.625 0.544,2.605 0,1.151 -0.214,2.142 -0.64,2.973 -0.427,0.831 -1.007,1.519 -1.742,2.062 -0.735,0.543 -1.593,0.948 -2.573,1.214 -0.98,0.267 -2.024,0.4 -3.133,0.4 h -2.302 v 7.32 h -4.379 z m 4.379,9.462 h 1.79 c 0.555,0 1.082,-0.048 1.583,-0.144 0.5,-0.096 0.938,-0.266 1.311,-0.512 0.372,-0.245 0.666,-0.564 0.879,-0.959 0.213,-0.394 0.319,-0.889 0.319,-1.486 0,-1.044 -0.352,-1.811 -1.055,-2.302 -0.703,-0.49 -1.599,-0.735 -2.686,-0.735 h -2.142 v 6.138 z"
   id="path1249" />
		<path
   fill="#4b5564"
   d="m 1128.92,955.271 v 3.453 h -5.689 v 16.687 h -4.38 v -16.687 h -5.563 v -3.453 z"
   id="path1251" />
		<path
   fill="#4b5564"
   d="m 1135.793,955.271 v 20.139 h -4.379 v -20.139 z"
   id="path1253" />
		<path
   fill="#4b5564"
   d="m 1149.347,954.919 c 1.428,0 2.749,0.235 3.964,0.703 1.215,0.469 2.259,1.146 3.133,2.03 0.873,0.885 1.561,1.977 2.062,3.277 0.501,1.3 0.752,2.781 0.752,4.443 0,1.62 -0.256,3.069 -0.768,4.348 -0.512,1.278 -1.215,2.365 -2.11,3.26 -0.895,0.896 -1.955,1.583 -3.181,2.062 -1.226,0.479 -2.552,0.719 -3.979,0.719 -1.427,0 -2.749,-0.229 -3.964,-0.687 -1.215,-0.458 -2.259,-1.129 -3.133,-2.014 -0.874,-0.884 -1.562,-1.971 -2.062,-3.261 -0.501,-1.289 -0.752,-2.765 -0.752,-4.427 0,-1.619 0.256,-3.074 0.768,-4.364 0.512,-1.289 1.215,-2.386 2.109,-3.292 0.896,-0.905 1.955,-1.598 3.181,-2.078 1.226,-0.48 2.552,-0.719 3.98,-0.719 z m -5.403,10.454 c 0,1.194 0.144,2.232 0.432,3.117 0.287,0.885 0.676,1.62 1.167,2.206 0.489,0.586 1.06,1.023 1.71,1.311 0.649,0.288 1.348,0.431 2.094,0.431 0.725,0 1.411,-0.144 2.062,-0.431 0.65,-0.288 1.21,-0.725 1.679,-1.311 0.469,-0.586 0.842,-1.321 1.119,-2.206 0.276,-0.884 0.415,-1.923 0.415,-3.117 0,-1.236 -0.144,-2.302 -0.432,-3.197 -0.287,-0.895 -0.677,-1.635 -1.167,-2.222 -0.49,-0.586 -1.061,-1.018 -1.71,-1.294 -0.65,-0.277 -1.348,-0.416 -2.094,-0.416 -0.746,0 -1.438,0.149 -2.078,0.448 -0.639,0.299 -1.193,0.741 -1.662,1.327 -0.469,0.586 -0.842,1.327 -1.119,2.222 -0.277,0.894 -0.416,1.938 -0.416,3.132 z"
   id="path1255" />
		<path
   fill="#4b5564"
   d="m 1162.677,955.271 h 4.38 v 12.051 c 0,1.663 0.335,2.925 1.007,3.789 0.671,0.863 1.71,1.294 3.116,1.294 1.386,0 2.387,-0.437 3.006,-1.311 0.617,-0.874 0.927,-2.003 0.927,-3.389 V 955.27 h 4.379 v 12.115 c 0,2.813 -0.698,4.913 -2.094,6.298 -1.396,1.385 -3.468,2.078 -6.218,2.078 -2.643,0 -4.72,-0.692 -6.233,-2.078 -1.513,-1.385 -2.27,-3.538 -2.27,-6.458 z"
   id="path1257" />
		<path
   fill="#4b5564"
   d="m 1190.392,954.919 c 1.3,0 2.451,0.128 3.453,0.383 1.001,0.256 1.896,0.586 2.685,0.991 l -0.99,3.261 c -0.874,-0.426 -1.716,-0.751 -2.525,-0.975 -0.811,-0.224 -1.599,-0.336 -2.366,-0.336 -1.022,0 -1.816,0.203 -2.381,0.607 -0.565,0.405 -0.848,0.949 -0.848,1.63 0,0.704 0.245,1.236 0.735,1.599 0.49,0.363 1.278,0.714 2.365,1.055 l 1.918,0.607 c 1.599,0.533 2.851,1.29 3.757,2.27 0.905,0.98 1.358,2.185 1.358,3.612 0,0.853 -0.16,1.652 -0.479,2.397 -0.319,0.747 -0.799,1.396 -1.438,1.95 -0.639,0.554 -1.438,0.991 -2.397,1.311 -0.959,0.32 -2.078,0.479 -3.356,0.479 -2.409,0 -4.614,-0.49 -6.617,-1.47 l 0.99,-3.261 c 0.917,0.447 1.812,0.794 2.686,1.039 0.874,0.245 1.79,0.367 2.749,0.367 1.13,0 1.982,-0.208 2.558,-0.623 0.576,-0.415 0.863,-0.996 0.863,-1.742 0,-0.256 -0.048,-0.506 -0.144,-0.751 -0.097,-0.245 -0.272,-0.479 -0.528,-0.703 -0.255,-0.224 -0.602,-0.448 -1.038,-0.671 -0.438,-0.224 -1.008,-0.442 -1.711,-0.655 l -1.694,-0.575 c -0.746,-0.256 -1.428,-0.554 -2.046,-0.896 -0.618,-0.34 -1.146,-0.735 -1.582,-1.183 -0.437,-0.447 -0.778,-0.975 -1.022,-1.583 -0.246,-0.607 -0.368,-1.315 -0.368,-2.125 0,-0.874 0.16,-1.678 0.479,-2.414 0.319,-0.736 0.794,-1.369 1.423,-1.902 0.628,-0.533 1.406,-0.948 2.333,-1.247 0.925,-0.296 1.984,-0.446 3.178,-0.446 z"
   id="path1259" />
	</g><g
   id="g1305"
   transform="matrix(1.3512852,0,0,1.3512852,-1272.9985,-1144.2658)">
		<path
   fill="#4b5564"
   d="m 1003.931,1031.264 h 3.607 l 7.068,18.631 h -3.815 l -1.656,-4.584 h -6.949 l -1.656,4.584 h -3.756 z m -0.888,11.355 h 5.176 l -0.977,-2.75 c -0.276,-0.828 -0.537,-1.606 -0.783,-2.336 -0.247,-0.729 -0.498,-1.528 -0.755,-2.396 h -0.059 c -0.276,0.809 -0.543,1.592 -0.799,2.351 -0.256,0.76 -0.532,1.553 -0.828,2.381 z"
   id="path1283" />
		<path
   fill="#4b5564"
   d="m 1017.534,1031.264 2.396,9.404 c 0.06,0.256 0.138,0.611 0.236,1.064 0.099,0.454 0.197,0.932 0.296,1.435 0.099,0.502 0.192,1.005 0.281,1.508 0.089,0.503 0.152,0.932 0.192,1.286 h 0.059 c 0.06,-0.374 0.133,-0.808 0.222,-1.301 0.089,-0.493 0.188,-0.991 0.296,-1.493 0.108,-0.503 0.212,-0.977 0.311,-1.42 0.099,-0.443 0.178,-0.803 0.236,-1.079 l 2.544,-9.404 h 3.638 l 2.543,9.374 c 0.06,0.257 0.143,0.611 0.251,1.065 0.108,0.453 0.212,0.937 0.311,1.448 0.099,0.514 0.197,1.021 0.296,1.523 0.099,0.502 0.178,0.932 0.236,1.286 h 0.06 c 0.06,-0.354 0.138,-0.778 0.236,-1.271 0.099,-0.492 0.197,-0.99 0.296,-1.493 0.099,-0.503 0.197,-0.98 0.296,-1.435 0.099,-0.453 0.178,-0.828 0.236,-1.124 l 2.307,-9.374 h 3.638 l -4.998,18.631 h -3.845 l -2.572,-9.789 c -0.218,-0.808 -0.414,-1.592 -0.592,-2.351 -0.178,-0.759 -0.365,-1.572 -0.562,-2.44 h -0.06 c -0.178,0.888 -0.345,1.696 -0.503,2.426 -0.157,0.729 -0.345,1.508 -0.562,2.336 l -2.484,9.818 h -3.814 l -5.116,-18.631 h 3.695 z"
   id="path1285" />
		<path
   fill="#4b5564"
   d="m 1045.156,1031.264 h 3.607 l 7.068,18.631 h -3.815 l -1.656,-4.584 h -6.949 l -1.656,4.584 h -3.756 z m -0.887,11.355 h 5.176 l -0.977,-2.75 c -0.276,-0.828 -0.537,-1.606 -0.783,-2.336 -0.247,-0.729 -0.498,-1.528 -0.755,-2.396 h -0.059 c -0.276,0.809 -0.543,1.592 -0.799,2.351 -0.256,0.76 -0.532,1.553 -0.828,2.381 z"
   id="path1287" />
		<path
   fill="#4b5564"
   d="m 1061.834,1031.264 v 18.631 h -3.607 v -18.631 z"
   id="path1289" />
		<path
   fill="#4b5564"
   d="m 1078.662,1031.264 v 2.897 h -5.472 v 15.733 h -3.607 v -15.733 h -5.323 v -2.897 z"
   id="path1291" />
		<path
   fill="#4b5564"
   d="m 1099.363,1031.264 v 2.839 h -7.926 v 5.293 h 7.275 v 2.81 h -7.275 v 7.689 h -3.607 v -18.631 z"
   id="path1293" />
		<path
   fill="#4b5564"
   d="m 1110.482,1030.968 c 1.302,0 2.504,0.212 3.608,0.636 1.104,0.424 2.056,1.045 2.854,1.863 0.799,0.818 1.425,1.823 1.878,3.017 0.453,1.192 0.681,2.567 0.681,4.125 0,1.519 -0.232,2.869 -0.695,4.052 -0.464,1.183 -1.104,2.184 -1.922,3.002 -0.818,0.818 -1.785,1.444 -2.898,1.878 -1.114,0.433 -2.321,0.65 -3.623,0.65 -1.301,0 -2.504,-0.207 -3.607,-0.621 -1.104,-0.414 -2.056,-1.025 -2.854,-1.834 -0.798,-0.808 -1.424,-1.809 -1.878,-3.001 -0.453,-1.193 -0.68,-2.568 -0.68,-4.126 0,-1.518 0.231,-2.873 0.695,-4.066 0.463,-1.192 1.104,-2.203 1.922,-3.031 0.817,-0.828 1.784,-1.459 2.898,-1.893 1.113,-0.434 2.321,-0.651 3.621,-0.651 z m -5.293,9.64 c 0,1.164 0.138,2.169 0.414,3.017 0.275,0.848 0.655,1.553 1.139,2.114 0.482,0.563 1.044,0.981 1.686,1.257 0.641,0.276 1.325,0.414 2.055,0.414 0.73,0 1.41,-0.138 2.041,-0.414 0.631,-0.275 1.178,-0.694 1.642,-1.257 0.463,-0.562 0.828,-1.267 1.094,-2.114 0.267,-0.848 0.399,-1.853 0.399,-3.017 0,-1.183 -0.139,-2.208 -0.414,-3.075 -0.276,-0.868 -0.655,-1.583 -1.139,-2.145 -0.484,-0.562 -1.045,-0.976 -1.686,-1.242 -0.641,-0.266 -1.326,-0.399 -2.056,-0.399 -0.73,0 -1.409,0.144 -2.04,0.43 -0.632,0.285 -1.179,0.709 -1.642,1.271 -0.464,0.562 -0.828,1.276 -1.094,2.144 -0.266,0.868 -0.399,1.873 -0.399,3.016 z"
   id="path1295" />
		<path
   fill="#4b5564"
   d="m 1122.904,1031.264 h 6.713 c 1.024,0 1.922,0.147 2.691,0.443 0.769,0.296 1.414,0.7 1.937,1.212 0.522,0.514 0.917,1.114 1.184,1.805 0.266,0.69 0.398,1.439 0.398,2.247 0,0.75 -0.113,1.41 -0.34,1.981 -0.227,0.572 -0.518,1.075 -0.872,1.509 -0.355,0.434 -0.75,0.794 -1.184,1.079 -0.434,0.286 -0.857,0.518 -1.271,0.695 l 4.702,7.659 h -4.11 l -3.874,-7.009 h -2.455 v 7.009 h -3.519 z m 3.519,8.812 h 1.805 c 1.123,0 2.05,-0.231 2.779,-0.695 0.729,-0.463 1.095,-1.236 1.095,-2.321 0,-0.985 -0.291,-1.734 -0.873,-2.247 -0.581,-0.513 -1.434,-0.77 -2.558,-0.77 h -2.248 z"
   id="path1297" />
		<path
   fill="#4b5564"
   d="m 1148.336,1031.264 4.199,7.6 4.229,-7.6 h 3.903 l -6.447,10.912 v 7.719 h -3.607 v -7.719 l -6.299,-10.912 z"
   id="path1299" />
		<path
   fill="#4b5564"
   d="m 1170.279,1030.968 c 1.302,0 2.504,0.212 3.608,0.636 1.104,0.424 2.056,1.045 2.854,1.863 0.799,0.818 1.425,1.823 1.878,3.017 0.453,1.192 0.681,2.567 0.681,4.125 0,1.519 -0.232,2.869 -0.695,4.052 -0.464,1.183 -1.104,2.184 -1.922,3.002 -0.818,0.818 -1.785,1.444 -2.898,1.878 -1.114,0.433 -2.321,0.65 -3.623,0.65 -1.301,0 -2.504,-0.207 -3.607,-0.621 -1.104,-0.414 -2.056,-1.025 -2.854,-1.834 -0.798,-0.808 -1.424,-1.809 -1.878,-3.001 -0.453,-1.193 -0.68,-2.568 -0.68,-4.126 0,-1.518 0.231,-2.873 0.695,-4.066 0.463,-1.192 1.104,-2.203 1.922,-3.031 0.817,-0.828 1.784,-1.459 2.898,-1.893 1.113,-0.434 2.321,-0.651 3.621,-0.651 z m -5.293,9.64 c 0,1.164 0.138,2.169 0.414,3.017 0.275,0.848 0.655,1.553 1.139,2.114 0.482,0.563 1.044,0.981 1.686,1.257 0.641,0.276 1.325,0.414 2.055,0.414 0.73,0 1.41,-0.138 2.041,-0.414 0.631,-0.275 1.178,-0.694 1.642,-1.257 0.463,-0.562 0.828,-1.267 1.094,-2.114 0.267,-0.848 0.399,-1.853 0.399,-3.017 0,-1.183 -0.139,-2.208 -0.414,-3.075 -0.276,-0.868 -0.655,-1.583 -1.139,-2.145 -0.484,-0.562 -1.045,-0.976 -1.686,-1.242 -0.641,-0.266 -1.326,-0.399 -2.056,-0.399 -0.73,0 -1.409,0.144 -2.04,0.43 -0.632,0.285 -1.179,0.709 -1.642,1.271 -0.464,0.562 -0.828,1.276 -1.094,2.144 -0.266,0.868 -0.399,1.873 -0.399,3.016 z"
   id="path1301" />
		<path
   fill="#4b5564"
   d="m 1182.583,1031.264 h 3.607 v 11.148 c 0,1.716 0.32,2.973 0.961,3.771 0.641,0.799 1.671,1.198 3.091,1.198 1.399,0 2.415,-0.429 3.046,-1.286 0.631,-0.858 0.946,-1.967 0.946,-3.327 v -11.504 h 3.608 v 11.267 c 0,2.584 -0.651,4.506 -1.952,5.768 -1.302,1.262 -3.185,1.893 -5.648,1.893 -1.203,0 -2.277,-0.153 -3.224,-0.459 -0.946,-0.305 -1.75,-0.778 -2.41,-1.419 -0.661,-0.641 -1.164,-1.454 -1.509,-2.44 -0.345,-0.985 -0.517,-2.148 -0.517,-3.489 v -11.121 z"
   id="path1303" />
	</g><g
   id="g1327"
   transform="matrix(1.3512852,0,0,1.3512852,-1272.9985,-1146.6792)">
		<path
   fill="#4b5564"
   d="m 999.016,1061.699 h 9.278 c 1.336,0 2.518,0.191 3.544,0.575 1.026,0.384 1.88,0.909 2.562,1.577 0.68,0.668 1.193,1.447 1.54,2.338 0.346,0.891 0.52,1.844 0.52,2.858 0,0.965 -0.143,1.813 -0.427,2.542 -0.285,0.729 -0.649,1.367 -1.095,1.911 -0.445,0.545 -0.928,0.99 -1.448,1.336 -0.52,0.347 -1.002,0.619 -1.447,0.816 l 5.604,9.427 h -6.495 l -4.156,-8.425 h -2.338 v 8.425 h -5.642 z m 5.641,10.689 h 1.707 c 1.286,0 2.325,-0.26 3.117,-0.779 0.792,-0.519 1.188,-1.36 1.188,-2.523 0,-0.965 -0.321,-1.731 -0.965,-2.302 -0.644,-0.568 -1.571,-0.854 -2.783,-0.854 h -2.264 z"
   id="path1307" />
		<path
   fill="#4b5564"
   d="m 1026.294,1061.699 v 23.381 h -5.642 v -23.381 z"
   id="path1309" />
		<path
   fill="#4b5564"
   d="m 1042.733,1061.254 c 1.484,0 2.802,0.124 3.953,0.371 1.15,0.247 2.171,0.582 3.062,1.002 l -1.15,3.711 c -0.842,-0.42 -1.726,-0.724 -2.653,-0.909 -0.929,-0.186 -1.825,-0.278 -2.691,-0.278 -0.989,0 -1.917,0.161 -2.783,0.482 -0.866,0.322 -1.627,0.823 -2.282,1.503 -0.656,0.682 -1.169,1.541 -1.54,2.58 -0.371,1.039 -0.557,2.276 -0.557,3.711 0,2.623 0.575,4.633 1.726,6.031 1.15,1.397 2.802,2.097 4.954,2.097 0.52,0 0.989,-0.024 1.41,-0.074 0.421,-0.05 0.742,-0.124 0.965,-0.223 v -5.085 h -3.674 v -4.156 h 9.093 v 12.024 c -0.965,0.421 -2.104,0.768 -3.414,1.039 -1.313,0.271 -2.784,0.408 -4.417,0.408 -1.781,0 -3.433,-0.26 -4.954,-0.779 -1.521,-0.519 -2.853,-1.293 -3.99,-2.319 -1.137,-1.026 -2.028,-2.288 -2.672,-3.786 -0.644,-1.496 -0.965,-3.222 -0.965,-5.177 0,-1.954 0.321,-3.692 0.965,-5.214 0.644,-1.522 1.534,-2.796 2.672,-3.823 1.138,-1.026 2.469,-1.806 3.99,-2.338 1.521,-0.532 3.171,-0.798 4.952,-0.798 z"
   id="path1311" />
		<path
   fill="#4b5564"
   d="m 1054.795,1085.08 v -23.381 h 5.642 v 9.093 h 8.127 v -9.093 h 5.642 v 23.381 h -5.642 v -9.909 h -8.127 v 9.909 z"
   id="path1313" />
		<path
   fill="#4b5564"
   d="m 1095.285,1061.699 v 4.379 h -6.384 v 19.002 h -5.641 v -19.002 h -6.235 v -4.379 z"
   id="path1315" />
		<path
   fill="#4b5564"
   d="m 1106.678,1085.08 v -23.381 h 5.642 v 9.093 h 8.127 v -9.093 h 5.642 v 23.381 h -5.642 v -9.909 h -8.127 v 9.909 z"
   id="path1317" />
		<path
   fill="#4b5564"
   d="m 1130.986,1061.699 h 15.588 v 4.305 h -9.946 v 4.788 h 8.98 v 4.268 h -8.98 v 5.716 h 10.058 v 4.305 h -15.699 v -23.382 z"
   id="path1319" />
		<path
   fill="#4b5564"
   d="m 1150.396,1061.699 h 9.278 c 1.336,0 2.518,0.191 3.544,0.575 1.026,0.384 1.88,0.909 2.562,1.577 0.68,0.668 1.193,1.447 1.54,2.338 0.346,0.891 0.52,1.844 0.52,2.858 0,0.965 -0.143,1.813 -0.427,2.542 -0.285,0.729 -0.649,1.367 -1.095,1.911 -0.445,0.545 -0.928,0.99 -1.448,1.336 -0.52,0.347 -1.002,0.619 -1.447,0.816 l 5.604,9.427 h -6.495 l -4.156,-8.425 h -2.338 v 8.425 h -5.642 z m 5.641,10.689 h 1.707 c 1.286,0 2.325,-0.26 3.117,-0.779 0.792,-0.519 1.188,-1.36 1.188,-2.523 0,-0.965 -0.321,-1.731 -0.965,-2.302 -0.644,-0.568 -1.571,-0.854 -2.783,-0.854 h -2.264 z"
   id="path1321" />
		<path
   fill="#4b5564"
   d="m 1172.032,1061.699 h 15.588 v 4.305 h -9.946 v 4.788 h 8.98 v 4.268 h -8.98 v 5.716 h 10.058 v 4.305 h -15.699 v -23.382 z"
   id="path1323" />
		<path
   fill="#4b5564"
   d="m 1190.959,1082.445 c 0,-0.421 0.08,-0.816 0.241,-1.188 0.161,-0.372 0.384,-0.692 0.668,-0.965 0.284,-0.273 0.606,-0.482 0.965,-0.631 0.359,-0.149 0.736,-0.223 1.132,-0.223 0.396,0 0.773,0.074 1.133,0.223 0.358,0.148 0.674,0.358 0.946,0.631 0.271,0.272 0.488,0.594 0.649,0.965 0.16,0.371 0.241,0.767 0.241,1.188 0,0.915 -0.297,1.651 -0.891,2.208 -0.594,0.557 -1.287,0.835 -2.079,0.835 -0.792,0 -1.49,-0.278 -2.097,-0.835 -0.607,-0.557 -0.908,-1.293 -0.908,-2.208 z m 0.148,-23.715 h 5.716 l -0.742,17.851 h -4.306 z"
   id="path1325" />
	</g><g
   aria-label="INNUMEROUS"
   id="text2862"
   style="font-size:119.898px;line-height:1.25;fill:#4b5564;stroke-width:2.99745"
   transform="matrix(0.40224161,0,0,0.40224161,-230.88417,-192.71727)"><path
     d="m 769.17494,731.64236 v 75.53574 h -8.63266 v -75.53574 z"
     style="font-weight:300;font-family:Mukta;-inkscape-font-specification:'Mukta Light'"
     id="path1238" /><path
     d="m 788.2386,731.64236 h 7.79337 l 33.69134,48.79849 q 2.27806,3.35714 4.43622,6.71428 2.27806,3.35715 4.31633,6.71429 h 0.2398 q -0.2398,-4.43622 -0.3597,-8.75255 0,-4.43623 0,-8.87245 v -44.60206 h 8.39286 v 75.53574 h -7.79337 L 805.9835,759.81839 q -2.51786,-3.59694 -5.03571,-7.67347 -2.39796,-4.19643 -4.55613,-8.27296 h -0.23979 q 0.23979,5.39541 0.35969,10.67092 0.1199,5.15561 0.1199,10.55102 v 42.0842 h -8.39286 z"
     style="font-weight:300;font-family:Mukta;-inkscape-font-specification:'Mukta Light'"
     id="path1240" /><path
     d="m 865.81253,731.64236 h 7.79337 l 33.69134,48.79849 q 2.27806,3.35714 4.43622,6.71428 2.27807,3.35715 4.31633,6.71429 h 0.2398 q -0.2398,-4.43622 -0.3597,-8.75255 0,-4.43623 0,-8.87245 v -44.60206 h 8.39286 v 75.53574 h -7.79337 l -32.97195,-47.35971 q -2.51786,-3.59694 -5.03571,-7.67347 -2.39796,-4.19643 -4.55613,-8.27296 h -0.23979 q 0.23979,5.39541 0.35969,10.67092 0.1199,5.15561 0.1199,10.55102 v 42.0842 h -8.39286 z"
     style="font-weight:300;font-family:Mukta;-inkscape-font-specification:'Mukta Light'"
     id="path1242" /><path
     d="m 942.78697,731.64236 h 8.63265 v 45.20155 q 0,13.18878 4.79592,18.82398 4.91582,5.51531 15.46685,5.51531 5.15561,0 8.87245,-1.67857 3.71684,-1.67857 5.9949,-4.67602 2.39796,-2.99745 3.47704,-7.19388 1.19898,-4.19643 1.19898,-9.35205 v -46.64032 h 8.63266 v 46.28063 q 0,15.58674 -7.43368,23.02041 -7.31378,7.31378 -20.74235,7.31378 -13.54848,0 -21.22195,-7.31378 -7.67347,-7.43367 -7.67347,-23.6199 z"
     style="font-weight:300;font-family:Mukta;-inkscape-font-specification:'Mukta Light'"
     id="path1244" /><path
     d="m 1023.5982,731.64236 h 11.2704 l 17.5051,51.91583 q 0.9592,2.75766 2.0382,6.2347 1.199,3.47704 2.1582,6.71429 h 0.2398 q 0.9592,-3.11735 2.0383,-6.47449 1.0791,-3.47705 2.0382,-6.4745 l 17.1455,-51.91583 h 11.3903 l 7.1938,75.53574 h -8.6326 l -3.7168,-41.60461 q -0.5995,-6.35459 -1.0791,-12.46939 -0.3597,-6.23469 -0.5995,-12.58929 h -0.2398 q -1.6786,5.75511 -3.7169,12.3495 -1.9183,6.47449 -3.9566,12.70918 l -14.2679,41.60461 h -7.7933 l -14.2679,-41.7245 q -2.1581,-6.3546 -4.0765,-12.3495 -1.9184,-6.1148 -3.597,-12.58929 h -0.2398 q -0.3596,5.75511 -0.8392,12.2296 -0.4796,6.47449 -1.0791,12.82908 l -3.597,41.60461 h -8.3928 z"
     style="font-weight:300;font-family:Mukta;-inkscape-font-specification:'Mukta Light'"
     id="path1246" /><path
     d="m 1113.8813,731.64236 h 44.3623 v 7.07398 h -35.7296 v 25.89797 h 32.6122 v 7.07398 h -32.6122 v 28.41583 h 36.0893 v 7.07398 h -44.722 z"
     style="font-weight:300;font-family:Mukta;-inkscape-font-specification:'Mukta Light'"
     id="path1248" /><path
     d="m 1173.1109,731.64236 h 23.2602 q 5.875,0 10.3112,1.67857 4.5561,1.55868 7.5536,4.43623 2.9974,2.87755 4.5561,6.95408 1.5587,3.95664 1.5587,8.75256 0,4.31632 -1.3189,7.91326 -1.3189,3.47705 -3.597,6.1148 -2.1581,2.63776 -5.0357,4.43623 -2.8775,1.79847 -5.9949,2.87755 l 20.5026,32.37246 h -9.8316 l -18.7041,-30.81379 h -15.2271 v 30.81379 h -8.0331 z m 8.0331,37.76787 h 11.5102 q 3.9567,0 7.3138,-0.83929 3.477,-0.95918 5.9949,-2.87755 2.5179,-1.91837 3.9566,-4.79592 1.4388,-2.99745 1.4388,-7.07398 0,-7.91327 -4.5561,-11.51021 -4.4362,-3.71684 -13.1888,-3.71684 h -12.4694 z"
     style="font-weight:300;font-family:Mukta;-inkscape-font-specification:'Mukta Light'"
     id="path1250" /><path
     d="m 1266.991,730.68317 q 7.1938,0 13.4285,2.39796 6.3546,2.39797 10.9108,7.31378 4.5561,4.79592 7.1938,12.1097 2.6378,7.19388 2.6378,16.90562 0,9.47194 -2.7577,16.78572 -2.6377,7.19388 -7.3137,12.1097 -4.6761,4.91582 -11.0307,7.43367 -6.3545,2.51786 -13.5484,2.51786 -7.1939,0 -13.5485,-2.39796 -6.2347,-2.51786 -10.7908,-7.31378 -4.5561,-4.91581 -7.1939,-12.10969 -2.6378,-7.31378 -2.6378,-17.02552 0,-9.47194 2.6378,-16.66582 2.7577,-7.19388 7.4337,-12.1097 4.676,-4.91582 10.9107,-7.43368 6.3546,-2.51786 13.6684,-2.51786 z m -25.4184,38.72706 q 0,8.15306 2.0383,14.14796 2.0382,5.9949 5.5153,9.95154 3.477,3.95663 8.0331,5.875 4.6761,1.91837 9.8317,1.91837 5.1556,0 9.5918,-1.91837 4.5561,-1.91837 7.9133,-5.875 3.477,-3.95664 5.3954,-9.95154 2.0382,-5.9949 2.0382,-14.14796 0,-8.27296 -2.0382,-14.26786 -2.0383,-6.1148 -5.5153,-9.95154 -3.4771,-3.83673 -8.1531,-5.6352 -4.5561,-1.91837 -9.7117,-1.91837 -5.1556,0 -9.7118,1.91837 -4.4362,1.91837 -7.9132,5.875 -3.3572,3.95663 -5.3954,9.95153 -1.9184,5.9949 -1.9184,14.02807 z"
     style="font-weight:300;font-family:Mukta;-inkscape-font-specification:'Mukta Light'"
     id="path1252" /><path
     d="m 1315.6694,731.64236 h 8.6326 v 45.20155 q 0,13.18878 4.7959,18.82398 4.9158,5.51531 15.4669,5.51531 5.1556,0 8.8724,-1.67857 3.7169,-1.67857 5.9949,-4.67602 2.398,-2.99745 3.4771,-7.19388 1.1989,-4.19643 1.1989,-9.35205 v -46.64032 h 8.6327 v 46.28063 q 0,15.58674 -7.4337,23.02041 -7.3138,7.31378 -20.7423,7.31378 -13.5485,0 -21.222,-7.31378 -7.6734,-7.43367 -7.6734,-23.6199 z"
     style="font-weight:300;font-family:Mukta;-inkscape-font-specification:'Mukta Light'"
     id="path1254" /><path
     d="m 1411.8275,730.68317 q 5.3954,0 10.3112,0.95919 5.0357,0.95918 9.9516,3.23725 l -2.1582,7.07398 q -5.1556,-2.39796 -9.3521,-3.35715 -4.0765,-0.95918 -8.3928,-0.95918 -7.3138,0 -11.75,3.35714 -4.4362,3.23725 -4.4362,9.23215 0,5.27551 3.3571,8.39286 3.3571,2.99745 10.4311,5.27551 l 8.0332,2.63776 q 9.2321,3.11735 13.4286,8.51276 4.3163,5.27551 4.3163,12.10969 0,4.91582 -1.9184,8.87246 -1.7984,3.83673 -5.1556,6.59439 -3.3571,2.63775 -8.0332,4.19643 -4.676,1.43877 -10.3112,1.43877 -5.7551,0 -11.5102,-1.07908 -5.6352,-1.07908 -11.3903,-3.71684 l 2.2781,-7.07398 q 5.0357,2.51786 9.8316,3.71684 4.9158,1.07908 10.3112,1.07908 7.3138,0 12.1097,-3.23725 4.9158,-3.23724 4.9158,-9.95153 0,-2.39796 -0.7193,-4.43623 -0.5995,-2.15816 -2.2781,-3.95663 -1.6786,-1.79847 -4.5561,-3.35714 -2.8776,-1.67858 -7.3138,-3.11735 l -7.7934,-2.51786 q -7.5536,-2.39796 -12.2296,-6.95408 -4.676,-4.67603 -4.676,-12.3495 0,-9.47194 6.3546,-14.98725 6.3546,-5.63521 18.3444,-5.63521 z"
     style="font-weight:300;font-family:Mukta;-inkscape-font-specification:'Mukta Light'"
     id="path1256" /></g></svg>
